<?xml version="1.0" standalone="no"?><!DOCTYPE svg PUBLIC "-//W3C//DTD SVG 1.1//EN" "http://www.w3.org/Graphics/SVG/1.1/DTD/svg11.dtd"><svg t="1522028031005" class="icon" style="" viewBox="0 0 1024 1024" version="1.1" xmlns="http://www.w3.org/2000/svg" p-id="4346" xmlns:xlink="http://www.w3.org/1999/xlink" width="200" height="200"><defs><style type="text/css"></style></defs><path d="M827.733333 1024H196.266667C133.688889 1024 85.333333 972.8 85.333333 913.066667V110.933333C85.333333 51.2 133.688889 0 196.266667 0h634.311111C890.311111 0 938.666667 51.2 938.666667 110.933333v802.133334c0 62.577778-48.355556 110.933333-110.933334 110.933333zM290.133333 31.288889H196.266667c-45.511111 0-79.644444 28.444444-79.644445 79.644444v802.133334c0 54.044444 36.977778 79.644444 79.644445 79.644444h93.866666V31.288889z m409.6 0H540.444444v275.911111l56.888889-31.288889c2.844444 0 17.066667-11.377778 22.755556-11.377778 2.844444 0 19.911111 11.377778 22.755555 11.377778l56.888889 31.288889V31.288889z m207.644445 79.644444c0-62.577778-54.044444-79.644444-79.644445-79.644444h-99.555555v295.822222c0 5.688889-2.844444 11.377778-5.688889 14.222222s-5.688889 2.844444-8.533333 2.844445c-2.844444 0-5.688889 0-5.688889-2.844445l-88.177778-45.511111-88.177778 45.511111c-8.533333 2.844444-17.066667 0-19.911111-8.533333 0-2.844444-2.844444-5.688889-2.844444-5.688889V31.288889h-190.577778v961.422222h509.155555c36.977778 0 79.644444-22.755556 79.644445-79.644444V110.933333z m-51.2 617.244445c-2.844444 0-8.533333-2.844444-11.377778-5.688889-2.844444-2.844444-5.688889-5.688889-5.688889-11.377778 0-2.844444 2.844444-8.533333 5.688889-11.377778 5.688889-5.688889 14.222222-5.688889 22.755556 0 2.844444 2.844444 5.688889 5.688889 5.688888 11.377778 0 2.844444-2.844444 8.533333-5.688888 11.377778-5.688889 5.688889-8.533333 5.688889-11.377778 5.688889z m-17.066667 65.422222c0-8.533333 5.688889-14.222222 14.222222-14.222222s14.222222 5.688889 14.222223 14.222222v51.2c0 65.422222-39.822222 110.933333-82.488889 110.933333h-261.688889c-8.533333 0-14.222222-5.688889-14.222222-14.222222s5.688889-14.222222 14.222222-14.222222h261.688889c25.6 0 54.044444-34.133333 54.044444-79.644445v-54.044444z" fill="#2c2c2c" p-id="4347"></path></svg>