<?xml version="1.0" standalone="no"?><!DOCTYPE svg PUBLIC "-//W3C//DTD SVG 1.1//EN" "http://www.w3.org/Graphics/SVG/1.1/DTD/svg11.dtd"><svg t="1521526580323" class="icon" style="" viewBox="0 0 1024 1024" version="1.1" xmlns="http://www.w3.org/2000/svg" p-id="3291" xmlns:xlink="http://www.w3.org/1999/xlink" width="20" height="20"><defs><style type="text/css"></style></defs><path d="M534.944 188.32a15.36 15.36 0 0 0-16 2.304L327.136 352H174.752a14.4 14.4 0 0 0-14.752 14.272v252.864c0 8.16 6.624 20.864 14.752 20.864h152.384l191.488 158.112c2.72 2.272 6.112 1.952 9.504 1.952 2.112 0 4.8-1.216 6.784-2.144a16.32 16.32 0 0 0 9.088-14.144V201.696c0-5.76-3.84-10.976-9.056-13.376zM512 740.128c0 4.896-1.728 9.312-6.176 11.36a9.984 9.984 0 0 1-4.736 1.184c-2.88 0-5.472-3.392-7.808-5.312L330.784 608H201.248C194.336 608 192 607.136 192 600.192v-214.944c0-6.912 2.336-1.248 9.248-1.248h129.536l162.784-142.624c3.776-3.136 7.904-6.624 12.288-4.576 4.416 2.048 6.144 3.648 6.144 8.544v494.784zM643.68 319.712a14.752 14.752 0 1 0-19.04 22.56 196.384 196.384 0 0 1 69.984 150.464c0 56.064-24 109.568-65.856 146.88a14.72 14.72 0 0 0 9.824 25.76 14.656 14.656 0 0 0 9.824-3.744 226.496 226.496 0 0 0 75.744-168.896c0-66.848-29.312-129.92-80.48-173.024z" p-id="3292" fill="#f36f3a"></path><path d="M726.304 252.096a14.72 14.72 0 1 0-14.944 25.44 250.688 250.688 0 0 1 123.168 215.232 250.944 250.944 0 0 1-122.176 214.624 14.752 14.752 0 1 0 15.072 25.344 280.544 280.544 0 0 0 136.576-240 280.416 280.416 0 0 0-137.696-240.64z" p-id="3293" fill="#f36f3a"></path></svg>